<?xml version="1.0" encoding="UTF-8"?>
<svg width="64px" height="63px" viewBox="0 0 64 63" version="1.1" xmlns="http://www.w3.org/2000/svg" xmlns:xlink="http://www.w3.org/1999/xlink">
    <!-- Generator: Sketch 56.2 (81672) - https://sketch.com -->
    <title>icon_menu_2</title>
    <desc>Created with Sketch.</desc>
    <defs>
        <polygon id="path-1" points="0.355906579 0.0216615385 10 0.0216615385 10 17.6321969 0.355906579 17.6321969"></polygon>
    </defs>
    <g id="页面1" stroke="none" stroke-width="1" fill="none" fill-rule="evenodd">
        <g id="1_首页" transform="translate(-343.000000, -819.000000)">
            <g id="menu" transform="translate(32.000000, 756.000000)">
                <g id="编组-11" transform="translate(94.000000, 44.000000)">
                    <g id="编组-12备份-3" transform="translate(199.000000, 1.000000)">
                        <g id="icon_menu_2" transform="translate(18.000000, 17.000000)">
                            <path d="M3.2324,36.1419837 C2.4054,36.1419837 1.5794,35.8347815 0.9474,35.2233354 C-0.3156,33.9994585 -0.3156,32.0184123 0.9474,30.7945354 L17.3234,14.9225354 C18.5864,13.6976738 20.6294,13.6976738 21.8934,14.9225354 C23.1564,16.1464123 23.1564,18.1274585 21.8934,19.3513354 L5.5174,35.2233354 C4.9124,35.8121354 4.0894,36.1429662 3.2324,36.1419837" id="Fill-1" fill="#FFFFFF"></path>
                            <path d="M38.8633,35.4131692 C38.1213,35.4131692 37.4053,35.1699692 36.8293,34.7101538 L17.5653,19.5677538 C16.1813,18.4787692 15.9673,16.5065846 17.0913,15.1655385 C18.2153,13.8244923 20.2493,13.6167385 21.6333,14.7067077 L40.8973,29.8491077 C42.2823,30.9390769 42.4953,32.9102769 41.3713,34.2513231 C40.7403,35.0173538 39.8013,35.4131692 38.8633,35.4131692" id="Fill-3" fill="#FFFFFF"></path>
                            <path d="M57,63.9785354 C55.345,63.9785354 54,62.6424123 54,60.9961354 L54,31.5157662 C54,29.8694892 55.345,28.5323815 57,28.5323815 C58.655,28.5323815 60,29.8694892 60,31.5157662 L60,60.9961354 C60,62.6493046 58.655,63.9785354 57,63.9785354 M39,63.9785354 C37.345,63.9785354 36,62.6177969 36,60.9439508 L36,47.3208123 C36,45.6469662 37.345,44.2862277 39,44.2862277 C40.655,44.2862277 42,45.6469662 42,47.3208123 L42,60.9439508 C42,62.6266585 40.663,63.9785354 39,63.9785354 M21,63.9785354 C19.345,63.9785354 18,62.6276431 18,60.9636431 L18,39.4251815 C18,37.7601969 19.345,36.4093046 21,36.4093046 C22.655,36.4093046 24,37.7601969 24,39.4251815 L24,60.9636431 C24,62.63552 22.655,63.9785354 21,63.9785354 M3,63.9785354 C1.345,63.9785354 0,62.6453662 0,61.0040123 L0,48.2453662 C0,46.6040123 1.345,45.2708431 3,45.2708431 C4.655,45.2708431 6,46.6040123 6,48.2453662 L6,61.0040123 C6,62.6532431 4.655,63.9785354 3,63.9785354" id="Fill-5" fill="#FFFFFF"></path>
                            <path d="M38.8633,35.4131692 C38.2313,35.4131692 37.6093,35.232 37.0803,34.8903385 C35.5933,33.9362462 35.1943,31.9916308 36.1783,30.5511385 L52.3323,7.02670769 C53.3173,5.58621538 55.3233,5.19926154 56.8093,6.15335385 C58.2953,7.10744615 58.6953,9.05304615 57.7103,10.4925538 L41.5573,34.0169846 C40.9353,34.9267692 39.9133,35.4131692 38.8633,35.4131692" id="Fill-7" fill="#FFFFFF"></path>
                            <path d="M45.9141,10.4299323 C44.4921,10.4299323 43.1831,9.51128615 42.7931,8.11608615 C42.3281,6.44125538 43.3411,4.72211692 45.0681,4.27214769 L56.7721,1.19325538 C58.5001,0.743286154 60.2731,1.72396308 60.7381,3.39879385 C61.2031,5.07362462 60.1901,6.79276308 58.4631,7.24273231 L46.7591,10.3216246 C46.4891,10.3935015 46.2021,10.4299323 45.9141,10.4299323" id="Fill-9" fill="#FFFFFF"></path>
                            <g id="编组" transform="translate(54.000000, 0.963151)">
                                <mask id="mask-2" fill="white">
                                    <use xlink:href="#path-1"></use>
                                </mask>
                                <g id="Clip-12"></g>
                                <path d="M6.7568,17.6321969 C5.3358,17.6321969 4.0268,16.7135508 3.6358,15.3183508 L0.4688,3.97459692 C0.0038,2.30075077 1.0168,0.580627692 2.7438,0.130658462 C4.4628,-0.319310769 6.2458,0.662350769 6.7108,2.33619692 L9.8878,13.6799508 C10.3518,15.3547815 9.3388,17.07392 7.6108,17.5238892 C7.3328,17.5957662 7.0448,17.6321969 6.7568,17.6321969" id="Fill-11" fill="#FFFFFF" mask="url(#mask-2)"></path>
                            </g>
                        </g>
                    </g>
                </g>
            </g>
        </g>
    </g>
</svg>