<?xml version="1.0" encoding="UTF-8"?>
<svg width="64px" height="64px" viewBox="0 0 64 64" version="1.1" xmlns="http://www.w3.org/2000/svg" xmlns:xlink="http://www.w3.org/1999/xlink">
    <!-- Generator: Sketch 56.2 (81672) - https://sketch.com -->
    <title>icon_menu_5</title>
    <desc>Created with Sketch.</desc>
    <g id="页面1" stroke="none" stroke-width="1" fill="none" fill-rule="evenodd">
        <g id="1_首页" transform="translate(-343.000000, -1018.000000)" fill="#FFFFFF">
            <g id="menu" transform="translate(32.000000, 756.000000)">
                <g id="编组-11备份-2" transform="translate(94.000000, 244.000000)">
                    <g id="编组-12" transform="translate(193.000000, 0.000000)">
                        <g id="icon_menu_5" transform="translate(24.000000, 18.000000)">
                            <path d="M41.9625,45.9281 C43.1595,45.9281 43.9575,46.7261 43.9575,47.9231 C43.9575,49.1201 43.1595,49.9191 41.9625,49.9191 L33.9815,49.9191 L33.9815,55.9061 C33.9815,57.1021 33.1825,57.9011 31.9855,57.9011 C30.7885,57.9011 29.9895,57.1021 29.9895,55.9061 L29.9895,49.9191 L22.0085,49.9191 C20.8115,49.9191 20.0135,49.1201 20.0135,47.9231 C20.0135,46.7261 20.8115,45.9281 22.0085,45.9281 L29.9895,45.9281 L29.9895,41.9371 L22.0085,41.9371 C20.8115,41.9371 20.0135,41.1391 20.0135,39.9431 C20.0135,38.7441 20.8115,37.9471 22.0085,37.9471 L26.3985,37.9471 L22.2085,30.9631 C21.6095,29.9651 22.0085,28.7681 23.0055,28.3691 C24.0035,27.7701 25.2005,28.1701 25.7995,29.1671 L31.1875,38.1461 L32.9835,38.1461 L38.3705,29.1671 C38.9695,28.1701 40.1665,27.9701 41.1635,28.3691 C42.1615,28.9681 42.3605,30.1641 41.9625,30.9631 L37.5725,37.9471 L41.9625,37.9471 C43.1595,37.9471 43.9575,38.7441 43.9575,39.9431 C43.9575,41.1391 43.1595,41.9371 41.9625,41.9371 L33.9815,41.9371 L33.9815,45.9281 L41.9625,45.9281 Z M61.9155,43.3341 C54.3335,26.7731 40.9645,17.9931 40.9645,17.9931 L22.8065,17.9931 C22.8065,17.9931 8.6395,27.1721 0.8575,45.9281 C-0.9385,50.3191 0.2585,56.1051 2.8535,59.0981 C7.2425,64.4861 13.0285,63.8861 13.6275,63.8861 L51.1415,63.8861 C52.3385,63.8861 59.1225,63.0881 62.1145,57.9011 C63.9115,54.7081 64.9085,50.1181 61.9155,43.3341 L61.9155,43.3341 Z" id="Fill-1"></path>
                            <path d="M21.0108,0.0346 L43.1598,0.0346 C46.9508,0.0346 46.5518,3.0276 46.3518,3.8256 L41.9628,14.0026 L22.0088,14.0026 L17.4188,3.4266 C17.2198,2.4296 17.0198,0.0346 20.0128,0.0346 L21.0108,0.0346 Z" id="Fill-3"></path>
                        </g>
                    </g>
                </g>
            </g>
        </g>
    </g>
</svg>