<?xml version="1.0" encoding="UTF-8"?>
<svg width="64px" height="64px" viewBox="0 0 64 64" version="1.1" xmlns="http://www.w3.org/2000/svg" xmlns:xlink="http://www.w3.org/1999/xlink">
    <!-- Generator: Sketch 56.2 (81672) - https://sketch.com -->
    <title>icon_menu_1</title>
    <desc>Created with Sketch.</desc>
    <g id="页面1" stroke="none" stroke-width="1" fill="none" fill-rule="evenodd">
        <g id="1_首页" transform="translate(-150.000000, -818.000000)" fill="#FFFFFF" stroke="#FFFFFF" stroke-width="6">
            <g id="menu" transform="translate(32.000000, 756.000000)">
                <g id="编组-11" transform="translate(94.000000, 44.000000)">
                    <g id="编组-12">
                        <g id="icon_menu_1" transform="translate(24.000000, 18.000000)">
                            <path d="M32,61 C48.0162577,61 61,48.0162577 61,32 C61,15.9837423 48.0162577,3 32,3 C15.9837423,3 3,15.9837423 3,32 C3,48.0162577 15.9837423,61 32,61 Z M37,30 L41,30 C44.3137085,30 47,32.6862915 47,36 C47,39.3137085 44.3137085,42 41,42 L31,42 C29.3896894,42 27.8733693,41.3586507 26.7573593,40.2426407 C25.6413493,39.1266307 25,37.6103106 25,36 L25,20 C25,16.6862915 27.6862915,14 31,14 C34.3137085,14 37,16.6862915 37,20 L37,30 Z" id="形状结合"></path>
                        </g>
                    </g>
                </g>
            </g>
        </g>
    </g>
</svg>