<?xml version="1.0" encoding="UTF-8"?>
<svg width="44px" height="44px" viewBox="0 0 44 44" version="1.1" xmlns="http://www.w3.org/2000/svg" xmlns:xlink="http://www.w3.org/1999/xlink">
    <!-- Generator: Sketch 56.2 (81672) - https://sketch.com -->
    <title>icon_grzx_0</title>
    <desc>Created with Sketch.</desc>
    <g id="页面1" stroke="none" stroke-width="1" fill="none" fill-rule="evenodd">
        <g id="1_首页" transform="translate(-353.000000, -1250.000000)" fill="#877B70">
            <g id="bot" transform="translate(0.000000, 1236.000000)">
                <g id="ys2" transform="translate(335.000000, 14.000000)">
                    <g id="icon_grzx_0" transform="translate(18.000000, 0.000000)">
                        <path d="M35.6973,23.5601 C40.7503,28.3521 44.0003,35.7161 44.0003,44.0001 L0.0003,44.0001 C0.0003,35.7161 3.2503,28.3521 8.3023,23.5601 C11.4463,27.7061 16.4083,30.4001 22.0003,30.4001 C27.5923,30.4001 32.5533,27.7061 35.6973,23.5601 Z M22,26.4004 C14.709,26.4004 8.8,20.4904 8.8,13.2004 C8.8,5.9094 14.709,0.0004 22,0.0004 C29.291,0.0004 35.2,5.9094 35.2,13.2004 C35.2,20.4904 29.291,26.4004 22,26.4004 Z" id="形状结合"></path>
                    </g>
                </g>
            </g>
        </g>
    </g>
</svg>