<?xml version="1.0" encoding="UTF-8"?>
<svg width="44px" height="42px" viewBox="0 0 44 42" version="1.1" xmlns="http://www.w3.org/2000/svg" xmlns:xlink="http://www.w3.org/1999/xlink">
    <!-- Generator: Sketch 56.2 (81672) - https://sketch.com -->
    <title>icon_sy_1</title>
    <desc>Created with Sketch.</desc>
    <defs>
        <linearGradient x1="2.54778012%" y1="4.44214876%" x2="100%" y2="95.5578512%" id="linearGradient-1">
            <stop stop-color="#906627" offset="0%"></stop>
            <stop stop-color="#F8D893" offset="52.985114%"></stop>
            <stop stop-color="#C09E65" offset="100%"></stop>
        </linearGradient>
    </defs>
    <g id="页面1" stroke="none" stroke-width="1" fill="none" fill-rule="evenodd">
        <g id="1_首页" transform="translate(-145.000000, -1251.000000)" fill="url(#linearGradient-1)">
            <g id="bot" transform="translate(0.000000, 1236.000000)">
                <g id="ys1" transform="translate(145.000000, 15.000000)">
                    <g id="icon_sy_1">
                        <path d="M42,38 C43.1,38 44,38.9 44,40 C44,41.1 43.1,42 42,42 L2,42 C0.9,42 0,41.1 0,40 C0,38.9 0.9,38 2,38 L42,38 Z M35,25 L35,19 C35,17.9 34.1,17 33,17 C31.9,17 31,17.9 31,19 L31,25 C31,26.1 31.9,27 33,27 C34.1,27 35,26.1 35,25 Z M24,25 L24,8 C24,6.9 23.1,6 22,6 C20.9,6 20,6.9 20,8 L20,25 C20,26.1 20.9,27 22,27 C23.1,27 24,26.1 24,25 Z M13,25 L13,13 C13,11.9 12.1,11 11,11 C9.9,11 9,11.9 9,13 L9,25 C9,26.1 9.9,27 11,27 C12.1,27 13,26.1 13,25 Z M40,0 C42.2,0 44,1.8 44,4 L44,30 C44,32.2 42.2,34 40,34 L4,34 C1.8,34 0,32.2 0,30 L0,4 C0,1.8 1.8,0 4,0 L40,0 Z" id="形状结合"></path>
                    </g>
                </g>
            </g>
        </g>
    </g>
</svg>