<?xml version="1.0" encoding="UTF-8"?>
<svg width="100px" height="100px" viewBox="0 0 100 100" version="1.1" xmlns="http://www.w3.org/2000/svg" xmlns:xlink="http://www.w3.org/1999/xlink">
    <!-- Generator: Sketch 56.2 (81672) - https://sketch.com -->
    <title>icon_menu_6</title>
    <desc>Created with Sketch.</desc>
    <defs>
        <rect id="path-1" x="0" y="0.000354853721" width="100" height="100" rx="8"></rect>
    </defs>
    <g id="页面1" stroke="none" stroke-width="1" fill="none" fill-rule="evenodd">
        <g id="1_首页" transform="translate(-518.000000, -1000.000000)">
            <g id="menu" transform="translate(32.000000, 756.000000)">
                <g id="编组-11备份-2" transform="translate(94.000000, 244.000000)">
                    <g id="编组-12备份-3" transform="translate(386.000000, 0.000000)">
                        <g id="icon_menu_6" transform="translate(6.000000, -0.000355)">
                            <mask id="mask-2" fill="white">
                                <use xlink:href="#path-1"></use>
                            </mask>
                            <use id="矩形" fill="#FF9732" xlink:href="#path-1"></use>
                            <g id="Fill-8" mask="url(#mask-2)">
                                <g transform="translate(18.000432, 18.000000)">
                                    <path d="M57.2712679,14.8072549 C59.5782679,16.2812549 62.8272679,23.7682549 62.4092679,29.0982549 C58.4252679,27.3422549 56.6492679,16.8182549 57.2712679,14.8072549 M35.4462679,62.1322549 C37.3432679,57.9442549 50.6312679,51.9102549 53.7362679,52.2102549 C51.5252679,57.8872549 40.6852679,62.9372549 35.4462679,62.1322549 M28.1262679,52.0404505 C14.9112679,52.0932549 4.1542679,41.3692549 4.10106384,28.0852549 C4.0472679,14.8022549 14.7172679,3.99125485 27.9332679,3.93705928 C41.1492679,3.88425485 51.9062679,14.6102549 51.9594645,27.8922549 C52.0122679,41.1762549 41.3422679,51.9882549 28.1262679,52.0404505 M6.4182679,49.0002549 L6.4142679,48.9962549 C10.0972679,49.4512549 13.8082679,53.8542549 13.8212679,57.1852549 C11.3122679,55.9842549 6.8002679,50.7472549 6.4182679,49.0002549 M32.0002679,-7.81597009e-14 C14.3782679,0.0712548537 -0.0717320951,14.2892549 -2.13162821e-13,32.0002549 C0.0712679049,49.7112549 14.3782679,64.0712549 32.0002679,64.000517 C49.6212679,63.9302549 64.0712679,49.7112549 64.0005284,32.0002549 C63.9282679,14.2892549 49.6212679,-0.0697451463 32.0002679,-7.81597009e-14" id="Fill-4" fill="#FFFFFF" fill-rule="evenodd"></path>
                                    <text id="PK" fill="none" font-family="AlibabaPuHuiTiB, Alibaba PuHuiTi" font-size="24" font-weight="bold">
                                        <tspan x="11.9995679" y="37.0003549" fill="#FFFFFF">PK</tspan>
                                    </text>
                                </g>
                            </g>
                        </g>
                    </g>
                </g>
            </g>
        </g>
    </g>
</svg>