<?xml version="1.0" encoding="UTF-8"?>
<svg width="44px" height="44px" viewBox="0 0 44 44" version="1.1" xmlns="http://www.w3.org/2000/svg" xmlns:xlink="http://www.w3.org/1999/xlink">
    <!-- Generator: Sketch 56.2 (81672) - https://sketch.com -->
    <title>icon_bz_0</title>
    <desc>Created with Sketch.</desc>
    <defs>
        <polygon id="path-1" points="0.0006 0 44 0 44 43.9999 0.0006 43.9999"></polygon>
    </defs>
    <g id="页面1" stroke="none" stroke-width="1" fill="none" fill-rule="evenodd">
        <g id="1_首页" transform="translate(-559.000000, -1250.000000)">
            <g id="bot" transform="translate(0.000000, 1236.000000)">
                <g id="ys3" transform="translate(559.000000, 14.000000)">
                    <g id="icon_bz_0">
                        <mask id="mask-2" fill="white">
                            <use xlink:href="#path-1"></use>
                        </mask>
                        <g id="Clip-2"></g>
                        <path d="M26.6526,22.0359 C24.4576,23.6559 24.0256,24.3399 24.0256,25.5639 L24.0256,26.3919 L19.6336,26.3919 L19.6336,24.7719 C19.6336,22.7209 20.2816,21.6039 22.4056,19.7679 C23.9896,18.5089 24.3136,17.8249 24.3136,16.3129 C24.3136,14.1529 23.4136,13.6849 20.4986,13.6849 C19.0216,13.6849 17.3666,13.9009 16.1066,14.2979 L16.1066,9.8339 C17.4376,9.4379 19.3816,9.1859 21.5416,9.1859 C27.4446,9.1859 29.8926,10.5169 29.8926,15.5569 C29.8926,18.9049 29.1006,20.2009 26.6526,22.0359 M21.8656,34.8139 C19.2736,34.8139 18.8056,34.3829 18.8056,31.7909 C18.8056,29.2709 19.2736,28.8039 21.8656,28.8039 C24.4216,28.8039 24.9246,29.2709 24.9246,31.7909 C24.9246,34.3829 24.4216,34.8139 21.8656,34.8139 M22.0006,-0.0001 C9.8496,-0.0001 0.0006,9.8499 0.0006,21.9999 C0.0006,34.1499 9.8496,43.9999 22.0006,43.9999 C34.1506,43.9999 44.0006,34.1499 44.0006,21.9999 C44.0006,9.8499 34.1506,-0.0001 22.0006,-0.0001" id="Fill-1" fill="#877B70" mask="url(#mask-2)"></path>
                    </g>
                </g>
            </g>
        </g>
    </g>
</svg>