<?xml version="1.0" encoding="UTF-8"?>
<svg width="28px" height="28px" viewBox="0 0 28 28" version="1.1" xmlns="http://www.w3.org/2000/svg" xmlns:xlink="http://www.w3.org/1999/xlink">
    <!-- Generator: Sketch 56.2 (81672) - https://sketch.com -->
    <title>编组</title>
    <desc>Created with Sketch.</desc>
    <g id="页面1" stroke="none" stroke-width="1" fill="none" fill-rule="evenodd" stroke-linecap="round">
        <g id="1_首页" transform="translate(-62.000000, -686.000000)" stroke="#ECCC8A" stroke-width="3">
            <g id="编组-9" transform="translate(32.000000, 676.000000)">
                <g id="编组" transform="translate(32.000000, 12.000000)">
                    <path d="M20,4 C22.4366391,5.88350004 24,8.79650332 24,12.065899 C24,15.2599815 22.5082645,18.1138102 20.1680441,20" id="Stroke-1"></path>
                    <path d="M15,1.95090714 L15,22.0493029 C15,23.5355479 13.7044737,24.474434 12.6521053,23.7507905 L8.11105263,20.0858233 C7.96736842,19.9884284 7.81263158,19.9173302 7.65157895,19.8773983 L1.26947368,18.302524 C0.531315789,18.1213697 0,17.3207842 0,16.3926115 L0,12.1461972 L0,7.898809 C0,6.97063633 0.531315789,6.17102483 1.26947368,5.98889651 L7.62631579,4.42083986 C7.80394737,4.37701219 7.97447368,4.29617448 8.12921053,4.18124859 L12.6086842,0.280585915 C13.6610526,-0.498572673 15,0.43739158 15,1.95090714 Z" id="Stroke-3"></path>
                </g>
            </g>
        </g>
    </g>
</svg>